<?xml version="1.0" encoding="utf-8"?>
<!-- Generator: Adobe Illustrator 24.0.1, SVG Export Plug-In . SVG Version: 6.00 Build 0)  -->
<svg version="1.1" id="Layer_1" xmlns="http://www.w3.org/2000/svg" xmlns:xlink="http://www.w3.org/1999/xlink" x="0px" y="0px"
	 viewBox="0 0 140 140" style="enable-background:new 0 0 140 140;" xml:space="preserve">
<g id="Mask_Group_4" transform="translate(-1194 -140)">
	<g id="Layer_2_1_" transform="translate(1255 143)">
		<g id="Layer_1_1_" transform="translate(135.93 34.93)">
			<path id="Path_99" d="M-76.6,36.3h-54.6v-54.6c0-1.2-0.9-2.1-2.1-2.1c-32.5,0-58.8,26.3-58.8,58.8s26.3,58.8,58.8,58.8
				c32.5,0,58.8-26.3,58.8-58.8C-74.5,37.2-75.4,36.3-76.6,36.3z M-133.2,92.9c-30.1,0-54.6-24.4-54.6-54.5
				c0-29.4,23.2-53.5,52.5-54.6v54.5c0,1.2,0.9,2.1,2.1,2.1h54.5C-79.9,69.8-103.9,92.9-133.2,92.9z"/>
			<path id="Path_100" d="M-79.1-15.8c-11-11.1-26-17.3-41.6-17.2c-1.2,0-2.1,0.9-2.1,2.1v56.7c0,1.2,0.9,2.1,2.1,2.1H-64
				c1.2,0,2.1-0.9,2.1-2.1v0C-61.8,10.2-68-4.8-79.1-15.8z M-118.5,23.7v-52.4c28.5,1.1,51.3,24,52.4,52.4H-118.5z"/>
			<path id="Path_101" d="M-161.7-3.2c-13.7,9.4-21.9,24.9-21.9,41.6c0,1.2,0.9,2.1,2.1,2.1c1.2,0,2.1-0.9,2.1-2.1
				c0-15.2,7.5-29.5,20.1-38.1c1-0.6,1.2-2,0.6-2.9C-159.4-3.6-160.7-3.9-161.7-3.2L-161.7-3.2z"/>
			<path id="Path_102" d="M-138.7,52.8h-6.7c-0.4-3.7-2.3-7-5.3-9.3h12c0.7,0,1.3-0.6,1.3-1.3c0-0.7-0.6-1.3-1.3-1.3h-28
				c-0.7,0-1.3,0.6-1.3,1.3c0,0.7,0.6,1.3,1.3,1.3h8c5.3,0,9.9,4,10.6,9.3h-18.6c-0.7,0-1.3,0.6-1.3,1.3c0,0.7,0.6,1.3,1.3,1.3h18.6
				c-0.7,5.3-5.2,9.4-10.6,9.4h-8c-0.7,0-1.3,0.6-1.3,1.4c0,0.4,0.2,0.7,0.4,1l20,18.9c0.5,0.5,1.4,0.5,1.9,0c0,0,0,0,0,0
				c0.5-0.5,0.5-1.4-0.1-1.9l-17.6-16.6h4.7c6.9,0,12.6-5.2,13.3-12h6.7c0.7,0,1.3-0.6,1.3-1.3C-137.3,53.4-137.9,52.8-138.7,52.8
				L-138.7,52.8z"/>
			<path id="Path_103" d="M-85.9-9.8c-0.7-0.7-1.7-0.7-2.4,0c0,0,0,0,0,0l-22.4,22.4c-0.7,0.6-0.7,1.7-0.1,2.4
				c0.6,0.7,1.7,0.7,2.4,0.1c0,0,0.1,0,0.1-0.1l22.4-22.4C-85.3-8-85.3-9.1-85.9-9.8z"/>
			<path id="Path_104" d="M-105.2-12.7c-3.4,0-6.2,2.8-6.2,6.2s2.8,6.2,6.2,6.2c3.4,0,6.2-2.8,6.2-6.2c0,0,0,0,0,0
				C-98.9-9.9-101.7-12.7-105.2-12.7z M-105.2-3.6c-1.6,0-2.8-1.3-2.8-2.8s1.3-2.8,2.8-2.8s2.8,1.3,2.8,2.8l0,0
				C-102.3-4.9-103.6-3.6-105.2-3.6z"/>
			<path id="Path_105" d="M-91.6,5.5c-3.4,0-6.2,2.8-6.2,6.2c0,3.4,2.8,6.2,6.2,6.2c3.4,0,6.2-2.8,6.2-6.2v0
				C-85.3,8.3-88.1,5.5-91.6,5.5z M-91.6,14.5c-1.6,0-2.8-1.3-2.8-2.8s1.3-2.8,2.8-2.8s2.8,1.3,2.8,2.8l0,0
				C-88.7,13.3-90,14.5-91.6,14.5z"/>
		</g>
	</g>
</g>
</svg>
