<?xml version="1.0" encoding="utf-8"?>
<!-- Generator: Adobe Illustrator 24.0.1, SVG Export Plug-In . SVG Version: 6.00 Build 0)  -->
<svg version="1.1" id="Layer_1" xmlns="http://www.w3.org/2000/svg" xmlns:xlink="http://www.w3.org/1999/xlink" x="0px" y="0px"
	 viewBox="0 0 512 512" style="enable-background:new 0 0 512 512;" xml:space="preserve">
<g id="money-grow-grown-protect-hand">
	<path d="M252.2,160v16.4c-42.3,3.9-75.8,37.4-79.6,79.6c-4.4,48.4,31.2,91.2,79.6,95.6s91.2-31.2,95.6-79.6s-31.2-91.2-79.6-95.6
		V160h40c30.9,0,56-25.1,56-56c0-4.4-3.6-8-8-8h-48c-15.1,0-29.5,6.1-40,16.9V80h40c30.9,0,56-25.1,56-56c0-4.4-3.6-8-8-8h-48
		c-19.7,0-37.9,10.4-48,27.3c-10.1-16.9-28.3-27.3-48-27.3h-48c-4.4,0-8,3.6-8,8c0,30.9,25.1,56,56,56h40v32.9
		c-10.5-10.8-24.9-16.9-40-16.9h-48c-4.4,0-8,3.6-8,8c0,30.9,25.1,56,56,56H252.2z M251.4,144h-39.2c-19,0-35.4-13.4-39.2-32h39.2
		C231.2,112,247.5,125.4,251.4,144z M251.4,64h-39.2c-19,0-35.4-13.4-39.2-32h39.2C231.2,32,247.5,45.4,251.4,64z M269,64
		c3.8-18.6,20.2-32,39.2-32h39.2c-3.8,18.6-20.2,32-39.2,32H269z M269,144c3.8-18.6,20.2-32,39.2-32h39.2c-3.8,18.6-20.2,32-39.2,32
		H269z M260.2,192c39.8,0,72,32.2,72,72s-32.2,72-72,72s-72-32.2-72-72C188.2,224.3,220.4,192.1,260.2,192z"/>
	<path d="M484.2,32h-16V16h16V32z"/>
	<path d="M484.2,64h-16V48h16V64z"/>
	<path d="M500.2,48h-16V32h16V48z"/>
	<path d="M468.2,48h-16V32h16V48z"/>
	<path d="M436.2,128h-16v-16h16V128z"/>
	<path d="M436.2,160h-16v-16h16V160z"/>
	<path d="M452.2,144h-16v-16h16V144z"/>
	<path d="M420.2,144h-16v-16h16V144z"/>
	<path d="M484.2,224h-16v-16h16V224z"/>
	<path d="M484.2,256h-16v-16h16V256z"/>
	<path d="M500.2,240h-16v-16h16V240z"/>
	<path d="M468.2,240h-16v-16h16V240z"/>
	<path d="M52.2,32h-16V16h16V32z"/>
	<path d="M52.2,64h-16V48h16V64z"/>
	<path d="M36.2,48h-16V32h16V48z"/>
	<path d="M68.2,48h-16V32h16V48z"/>
	<path d="M100.2,128h-16v-16h16V128z"/>
	<path d="M100.2,160h-16v-16h16V160z"/>
	<path d="M84.2,144h-16v-16h16V144z"/>
	<path d="M116.2,144h-16v-16h16V144z"/>
	<path d="M52.2,224h-16v-16h16V224z"/>
	<path d="M52.2,256h-16v-16h16V256z"/>
	<path d="M36.2,240h-16v-16h16V240z"/>
	<path d="M68.2,240h-16v-16h16V240z"/>
	<path d="M36,391l172.7,99.7c6.1,3.5,13,5.4,20,5.4h99c3.7,0,7.4-0.5,11-1.5l97.5-27.8V488c0,4.4,3.6,8,8,8h48c4.4,0,8-3.6,8-8V312
		c0-4.4-3.6-8-8-8h-48c-4.4,0-8,3.6-8,8v16h-76.1c-14.9,0-29.2,5.9-39.7,16.4L296.9,368h-92.7c-10.5,0-20.5,4.1-28,11.4L76,321.6
		c-19.2-10.9-43.6-4.4-54.6,14.7C10.3,355.5,16.9,379.9,36,391z M452.2,320h32v160h-32V320z M32.8,362.5c-1.6-6.1-0.8-12.7,2.4-18.2
		c6.6-11.5,21.3-15.4,32.8-8.8l99.3,57.3c-2.1,5-3.2,10.3-3.1,15.7c0.1,22,18,39.7,40,39.5h96v-16h-96c-13.2,0-24-10.8-24-24
		c0-4.9,1.5-9.7,4.3-13.8c0.9-1.2,1.9-2.3,2.9-3.4c4.5-4.4,10.5-6.9,16.8-6.9h96c2.1,0,4.2-0.8,5.7-2.3l25.9-25.9
		c7.5-7.6,17.7-11.8,28.3-11.8h76.1v106l-101.9,29c-2.1,0.6-4.3,1-6.6,1h-99c-4.2,0-8.3-1.1-12-3.2L44,377
		C38.5,373.9,34.4,368.6,32.8,362.5L32.8,362.5z"/>
	<g>
		<path d="M274.7,320c-0.7,0-1.4,0-2.2,0c-2.1-0.7-3.4-2.3-4.9-3.7c-13.3-12.6-26.6-25.2-40-37.8c-1.4-1.3-2.8-2.7-3.4-4.6
			c0-0.5,0-1,0-1.4c1.5-4,2.6-4.8,7-4.8c5.4,0,10.7,0,16.1,0c8.9,0,16.7-5.6,19.8-14c0.2-0.5,0.3-1,0.5-1.6c-0.7,0-1.1,0-1.6,0
			c-11.8,0-23.5,0-35.3,0c-1.8,0-3.6-0.3-4.8-1.7c-0.7-0.9-1.1-2-1.6-3c0-0.5,0-1,0-1.4c1.6-3.9,2.6-4.6,6.9-4.6
			c11.6,0,23.3,0,34.9,0c0.5,0,0.9,0,1.4,0c0-0.4,0-0.5-0.1-0.7c-2.5-8.3-10.9-14.6-19.6-14.6c-5.9,0-11.8,0-17.6,0
			c-3,0-4.8-1.4-5.7-4.3c0-0.1-0.1-0.2-0.2-0.3c0-0.6,0-1.1,0-1.7c1.1-3.5,3.5-4.7,7.1-4.6c8,0.2,16,0,24,0c11.9,0,23.8,0,35.8,0
			c4.1,0,6.7,4.2,4.9,7.8c-1.1,2.2-3,3-5.3,3c-6,0-12,0-18,0c-0.4,0-0.8,0-1.4,0c3.9,4.6,6.3,9.7,7.4,15.3c4.1,0,8.1,0,12.1,0
			c0.6,0,1.3,0,1.9,0.2c2.6,0.8,4.1,3.1,3.7,5.9c-0.3,2.5-2.5,4.4-5.2,4.5c-3.8,0-7.6,0-11.4,0c-0.9,0-1.3,0.2-1.5,1.2
			c-2,9.2-7.1,16.3-15.3,21.1c-4.8,2.8-10.1,4.2-15.7,4.2c-1.2,0-2.4,0-3.8,0c0.2,0.3,0.3,0.4,0.4,0.5c7.4,7,14.7,14,22.1,21
			c3.8,3.6,7.6,7.2,11.4,10.8c3.1,3,1.9,7.8-2.1,9.2C275.1,319.8,274.9,319.9,274.7,320z"/>
	</g>
</g>
</svg>
