<svg id="Layer_3" enable-background="new 0 0 64 64" height="512" viewBox="0 0 64 64" width="512" xmlns="http://www.w3.org/2000/svg"><g><path d="m55 1h-46c-.553 0-1 .448-1 1v60c0 .552.447 1 1 1h36c.277 0 .527-.112.708-.294l9.998-9.998c.182-.181.294-.431.294-.708v-50c0-.552-.447-1-1-1zm-11 51v9h-34v-58h44v48h-9c-.553 0-1 .448-1 1zm8.586 1-6.586 6.586v-6.586z"/><path d="m12 5h2v8h-2z"/><path d="m36 5h2v8h-2z"/><path d="m17 9.303 2.168 3.252c.188.283.504.445.832.445.097 0 .194-.014.29-.043.422-.127.71-.517.71-.957v-7h-2v3.697l-2.168-3.252c-.244-.366-.701-.531-1.122-.402-.422.127-.71.517-.71.957v7h2z"/><path d="m24.168 12.555c.186.278.498.445.832.445s.646-.167.832-.445l2-3c.109-.164.168-.358.168-.555v-4h-2v3.697l-1 1.5-1-1.5v-3.697h-2v4c0 .197.059.391.168.555z"/><path d="m30 13h4c.553 0 1-.448 1-1v-6c0-.552-.447-1-1-1h-4c-.553 0-1 .448-1 1v6c0 .552.447 1 1 1zm1-6h2v4h-2z"/><path d="m40 13h4c.553 0 1-.448 1-1v-2h-2v1h-2v-4h2v1h2v-2c0-.552-.447-1-1-1h-4c-.553 0-1 .448-1 1v6c0 .552.447 1 1 1z"/><path d="m47 13h5v-2h-4v-1h2v-2h-2v-1h4v-2h-5c-.553 0-1 .448-1 1v6c0 .552.447 1 1 1z"/><path d="m51 40v-24c0-.552-.447-1-1-1h-36c-.553 0-1 .448-1 1v24c0 .552.447 1 1 1h36c.553 0 1-.448 1-1zm-2-17v4h-4v-4zm-6 4h-4v-4h4zm-6 0h-4v-4h4zm0 2v4h-4v-4zm-6-2h-4v-4h4zm-6 0h-10v-4h10zm0 2v4h-10v-4zm2 0h4v4h-4zm4 6v4h-4v-4zm2 0h4v4h-4zm6 0h4v4h-4zm0-2v-4h4v4zm6-4h4v4h-4zm4-12v4h-34v-4zm-34 18h10v4h-10zm30 4v-4h4v4z"/><path d="m21 46h-2v2h-1c-.404 0-.77.244-.924.617-.155.374-.069.804.217 1.09l2.293 2.293h-2.586v2h2v2h2v-2h1c.404 0 .77-.244.924-.617.155-.374.069-.804-.217-1.09l-2.293-2.293h2.586v-2h-2z"/><path d="m20 43c-4.411 0-8 3.589-8 8s3.589 8 8 8 8-3.589 8-8-3.589-8-8-8zm0 14c-3.309 0-6-2.691-6-6s2.691-6 6-6 6 2.691 6 6-2.691 6-6 6z"/><path d="m37 46h-2v2h-1c-.404 0-.77.244-.924.617-.155.374-.069.804.217 1.09l2.293 2.293h-2.586v2h2v2h2v-2h1c.404 0 .77-.244.924-.617.155-.374.069-.804-.217-1.09l-2.293-2.293h2.586v-2h-2z"/><path d="m36 43c-4.411 0-8 3.589-8 8s3.589 8 8 8 8-3.589 8-8-3.589-8-8-8zm0 14c-3.309 0-6-2.691-6-6s2.691-6 6-6 6 2.691 6 6-2.691 6-6 6z"/></g></svg>