<?xml version="1.0" encoding="utf-8"?>
<!-- Generator: Adobe Illustrator 24.0.1, SVG Export Plug-In . SVG Version: 6.00 Build 0)  -->
<svg version="1.1" id="Capa_1" xmlns="http://www.w3.org/2000/svg" xmlns:xlink="http://www.w3.org/1999/xlink" x="0px" y="0px"
	 viewBox="0 0 481.8 481.8" style="enable-background:new 0 0 481.8 481.8;" xml:space="preserve">
<path d="M288.2,103.8c-2.1,0-4.2-0.8-5.7-2.3c-40.3-40-102-48.8-151.9-21.8c-3.9,2.1-8.7,0.7-10.9-3.2c-2.1-3.9-0.7-8.7,3.2-10.9
	l0,0c56.2-30.4,125.6-20.4,170.9,24.6c3.1,3.1,3.1,8.2,0,11.3C292.3,102.9,290.3,103.8,288.2,103.8L288.2,103.8z"/>
<g>
	<path d="M95.8,103.8c-4.4,0-8-3.6-8-8c0-2.1,0.8-4.2,2.3-5.7c2.7-2.7,5.5-5.3,8.4-7.7c3.4-2.9,8.4-2.5,11.3,0.9s2.5,8.4-0.9,11.3
		c-2.5,2.2-5,4.5-7.4,6.9C100,102.9,98,103.8,95.8,103.8z"/>
	<path d="M479.5,422.9L352.9,296.3c57.6-88.9,32.3-207.8-56.7-265.4S88.5-1.3,30.9,87.6C10.7,118.7,0,154.9,0,191.9
		c-0.3,105.8,85.3,191.9,191.2,192.1c37.4,0.1,74-10.7,105.3-31.2L423,479.4c3.1,3.1,8.2,3.1,11.3,0l45.2-45.2
		C482.6,431.1,482.6,426,479.5,422.9L479.5,422.9z M67.6,316.4c-68.7-68.7-68.7-180.2,0-248.9s180.2-68.7,248.9,0
		c60.4,60.4,68.7,155.4,19.7,225.4c-11.8,16.8-26.4,31.5-43.3,43.3C223,385.3,127.9,376.9,67.6,316.4z M428.7,462.5L309.8,343.6
		c1.3-1,2.5-2.1,3.8-3.1c1.1-0.9,2.2-1.8,3.2-2.7c3.8-3.2,7.5-6.6,11-10.1s6.8-7.2,10.1-11c0.9-1.1,1.8-2.1,2.7-3.2
		c1-1.3,2.1-2.5,3.1-3.8l118.9,118.9L428.7,462.5z"/>
</g>
</svg>
