<?xml version="1.0" encoding="iso-8859-1"?>
<!-- Generator: Adobe Illustrator 19.0.0, SVG Export Plug-In . SVG Version: 6.00 Build 0)  -->
<svg version="1.1" id="Capa_1" xmlns="http://www.w3.org/2000/svg" xmlns:xlink="http://www.w3.org/1999/xlink" x="0px" y="0px"
	 viewBox="0 0 480 480" style="enable-background:new 0 0 480 480;" xml:space="preserve">
<g>
	<g>
		<path d="M472,32H264V8c0-4.418-3.582-8-8-8h-32c-4.418,0-8,3.582-8,8v24H8c-4.418,0-8,3.582-8,8v40c0,4.418,3.582,8,8,8h8v280
			c0,4.418,3.582,8,8,8h105.688l-56.504,91.808c-2.315,3.763-1.141,8.691,2.622,11.006C77.067,479.59,78.519,480,80,480h56
			c2.779,0.001,5.36-1.441,6.816-3.808L204.472,376h71.056l61.656,100.192c1.456,2.367,4.037,3.809,6.816,3.808h56
			c4.418,0.001,8.001-3.579,8.002-7.998c0-1.481-0.41-2.933-1.186-4.194L350.312,376H456c4.418,0,8-3.582,8-8V88h8
			c4.418,0,8-3.582,8-8V40C480,35.582,476.418,32,472,32z M232,16h16v16h-16V16z M131.528,464H94.32l54.152-88h37.208L131.528,464z
			 M385.68,464h-37.208l-54.152-88h37.208L385.68,464z M448,360H32V88h416V360z M464,72H16V48h448V72z"/>
	</g>
</g>
<g>
	<g>
		<path d="M120,144H72c-4.418,0-8,3.582-8,8v176c0,4.418,3.582,8,8,8h48c4.418,0,8-3.582,8-8V152C128,147.582,124.418,144,120,144z
			 M112,320H80V160h32V320z"/>
	</g>
</g>
<g>
	<g>
		<path d="M216,192h-48c-4.418,0-8,3.582-8,8v128c0,4.418,3.582,8,8,8h48c4.418,0,8-3.582,8-8V200C224,195.582,220.418,192,216,192z
			 M208,320h-32V208h32V320z"/>
	</g>
</g>
<g>
	<g>
		<path d="M312,152h-48c-4.418,0-8,3.582-8,8v168c0,4.418,3.582,8,8,8h48c4.418,0,8-3.582,8-8V160C320,155.582,316.418,152,312,152z
			 M304,320h-32V168h32V320z"/>
	</g>
</g>
<g>
	<g>
		<path d="M408,112h-48c-4.418,0-8,3.582-8,8v208c0,4.418,3.582,8,8,8h48c4.418,0,8-3.582,8-8V120C416,115.582,412.418,112,408,112z
			 M400,320h-32V128h32V320z"/>
	</g>
</g>
<g>
</g>
<g>
</g>
<g>
</g>
<g>
</g>
<g>
</g>
<g>
</g>
<g>
</g>
<g>
</g>
<g>
</g>
<g>
</g>
<g>
</g>
<g>
</g>
<g>
</g>
<g>
</g>
<g>
</g>
</svg>
